<?xml version="1.0" encoding="UTF-8" standalone="no"?>
<!-- Created with Inkscape (http://www.inkscape.org/) -->

<svg
   xmlns:dc="http://purl.org/dc/elements/1.1/"
   xmlns:cc="http://creativecommons.org/ns#"
   xmlns:rdf="http://www.w3.org/1999/02/22-rdf-syntax-ns#"
   xmlns:svg="http://www.w3.org/2000/svg"
   xmlns="http://www.w3.org/2000/svg"
   xmlns:sodipodi="http://sodipodi.sourceforge.net/DTD/sodipodi-0.dtd"
   xmlns:inkscape="http://www.inkscape.org/namespaces/inkscape"
   class="bgl"
   width="1328"
   height="327"
   viewBox="0 0 1328 326.99994"
   id="svg2"
   version="1.1"
   inkscape:version="0.91 r13725"
   sodipodi:docname="bgl.svg">
  <defs
     id="defs4">
    <inkscape:perspective
       sodipodi:type="inkscape:persp3d"
       inkscape:vp_x="0 : 526.18096 : 1"
       inkscape:vp_y="0 : 999.99975 : 0"
       inkscape:vp_z="0.5319254 : 526.18096 : 1"
       inkscape:persp3d-origin="0.26596271 : 350.78731 : 1"
       id="perspective4174" />
  </defs>
  <sodipodi:namedview
     id="base"
     pagecolor="#ffffff"
     bordercolor="#666666"
     borderopacity="1.0"
     inkscape:pageopacity="0.0"
     inkscape:pageshadow="2"
     inkscape:zoom="0.44554288"
     inkscape:cx="-150.9726"
     inkscape:cy="430.49958"
     inkscape:document-units="px"
     inkscape:current-layer="layer1"
     showgrid="true"
     inkscape:window-width="1366"
     inkscape:window-height="745"
     inkscape:window-x="-4"
     inkscape:window-y="-4"
     inkscape:window-maximized="1"
     showguides="true"
     inkscape:guide-bbox="true"
     inkscape:snap-others="true"
     inkscape:snap-intersection-paths="false"
     inkscape:object-paths="false"
     inkscape:snap-object-midpoints="true"
     inkscape:snap-nodes="false"
     inkscape:snap-global="false"
     fit-margin-top="0.42462"
     fit-margin-left="0.0271"
     fit-margin-right="0.0271"
     fit-margin-bottom="0.42462"
     units="px">
    <sodipodi:guide
       position="-13.78646,165.95488"
       orientation="0,1"
       id="guide4144" />
    <sodipodi:guide
       position="-13.91367,142.28658"
       orientation="1,0"
       id="guide4146" />
    <sodipodi:guide
       position="-13.9732,291.30968"
       orientation="1,0"
       id="guide4198" />
    <sodipodi:guide
       position="-13.9732,244.84978"
       orientation="0,1"
       id="guide4200" />
    <sodipodi:guide
       position="-13.91367,67.774973"
       orientation="1,0"
       id="guide4217" />
    <sodipodi:guide
       position="-13.82093,84.430473"
       orientation="0,1"
       id="guide4221" />
    <sodipodi:guide
       position="-13.82406,323.74418"
       orientation="0,1"
       id="guide4238" />
    <sodipodi:guide
       position="-13.93999,5.097573"
       orientation="0,1"
       id="guide4240" />
    <sodipodi:guide
       position="-13.84007,84.430473"
       orientation="1,0"
       id="guide4259" />
    <sodipodi:guide
       position="-13.77479,211.95618"
       orientation="1,0"
       id="guide4312" />
    <sodipodi:guide
       position="-13.60359,-42.90392"
       orientation="1,0"
       id="guide4348" />
    <sodipodi:guide
       position="-13.73054,244.84978"
       orientation="1,0"
       id="guide3370" />
    <sodipodi:guide
       position="-13.51258,165.95488"
       orientation="1,0"
       id="guide3387" />
    <sodipodi:guide
       position="-13.3935,216.89758"
       orientation="1,0"
       id="guide3422" />
    <sodipodi:guide
       position="-13.18287,202.41198"
       orientation="1,0"
       id="guide3492" />
    <sodipodi:guide
       position="-13.08682,244.84978"
       orientation="1,0"
       id="guide3509" />
    <sodipodi:guide
       position="-13.12019,362.21807"
       orientation="1,0"
       id="guide3541" />
    <sodipodi:guide
       position="-13.26726,165.95488"
       orientation="1,0"
       id="guide3543" />
    <inkscape:grid
       type="xygrid"
       id="grid4355"
       originx="-13.98962"
       originy="-102.90374" />
    <sodipodi:guide
       position="-13.4692,285.50238"
       orientation="1,0"
       id="guide4372" />
    <sodipodi:guide
       position="-13.32845,181.41008"
       orientation="1,0"
       id="guide4374" />
  </sodipodi:namedview>
  <metadata
     id="metadata7">
    <rdf:RDF>
      <cc:Work
         rdf:about="">
        <dc:format>image/svg+xml</dc:format>
        <dc:type
           rdf:resource="http://purl.org/dc/dcmitype/StillImage" />
        <dc:title></dc:title>
      </cc:Work>
    </rdf:RDF>
  </metadata>
  <g
     inkscape:label="Layer 1"
     inkscape:groupmode="layer"
     id="layer1"
     transform="translate(-192.64775,-342.56153)">
    <g
       id="g4232"
       style="fill:none;stroke:#ffffff;stroke-width:7.49999952;stroke-miterlimit:4;stroke-dasharray:none;stroke-opacity:1">
      <path
         d="m 201.81095,429.90292 a 5.1948051,5.1948051 0 0 1 -5.38259,-4.99893 5.1948051,5.1948051 0 0 1 4.99789,-5.38356 5.1948051,5.1948051 0 0 1 5.38452,4.99687 5.1948051,5.1948051 0 0 1 -4.99583,5.38547 l -0.19534,-5.19113 z"
         sodipodi:end="1.5331848"
         sodipodi:start="1.533952"
         sodipodi:ry="5.1948051"
         sodipodi:rx="5.1948051"
         sodipodi:cy="424.71164"
         sodipodi:cx="201.6196"
         sodipodi:type="arc"
         id="path4194"
         style="fill:none;fill-opacity:1;stroke:#ffffff;stroke-width:7.49999952;stroke-linecap:round;stroke-linejoin:round;stroke-miterlimit:4;stroke-dasharray:none;stroke-opacity:1" />
      <path
         d="m 201.81095,590.32196 a 5.1948051,5.1948051 0 0 1 -5.38259,-4.99893 5.1948051,5.1948051 0 0 1 4.99789,-5.38356 5.1948051,5.1948051 0 0 1 5.38452,4.99686 5.1948051,5.1948051 0 0 1 -4.99583,5.38548 l -0.19534,-5.19113 z"
         sodipodi:end="1.5331848"
         sodipodi:start="1.533952"
         sodipodi:ry="5.1948051"
         sodipodi:rx="5.1948051"
         sodipodi:cy="585.13068"
         sodipodi:cx="201.6196"
         sodipodi:type="arc"
         id="path4194-2"
         style="fill:none;fill-opacity:1;stroke:#ffffff;stroke-width:7.49999952;stroke-linecap:round;stroke-linejoin:round;stroke-miterlimit:4;stroke-dasharray:none;stroke-opacity:1" />
      <path
         d="m 1012.7476,429.90286 a 5.1948051,5.1948051 0 0 1 -5.3826,-4.99893 5.1948051,5.1948051 0 0 1 4.9979,-5.38356 5.1948051,5.1948051 0 0 1 5.3845,4.99687 5.1948051,5.1948051 0 0 1 -4.9958,5.38547 l -0.1953,-5.19113 z"
         sodipodi:end="1.5331848"
         sodipodi:start="1.533952"
         sodipodi:ry="5.1948051"
         sodipodi:rx="5.1948051"
         sodipodi:cy="424.71158"
         sodipodi:cx="1012.5563"
         sodipodi:type="arc"
         id="path4194-0-0"
         style="fill:none;fill-opacity:1;stroke:#ffffff;stroke-width:7.49999952;stroke-linecap:round;stroke-linejoin:round;stroke-miterlimit:4;stroke-dasharray:none;stroke-opacity:1" />
      <path
         d="m 718.84944,508.79772 a 5.1948051,5.1948051 0 0 1 -5.3826,-4.99892 5.1948051,5.1948051 0 0 1 4.99789,-5.38356 5.1948051,5.1948051 0 0 1 5.38452,4.99686 5.1948051,5.1948051 0 0 1 -4.99583,5.38548 l -0.19534,-5.19113 z"
         sodipodi:end="1.5331848"
         sodipodi:start="1.533952"
         sodipodi:ry="5.1948051"
         sodipodi:rx="5.1948051"
         sodipodi:cy="503.60645"
         sodipodi:cx="718.65808"
         sodipodi:type="arc"
         id="path4194-0-8"
         style="fill:none;fill-opacity:1;stroke:#ffffff;stroke-width:7.49999952;stroke-linecap:round;stroke-linejoin:round;stroke-miterlimit:4;stroke-dasharray:none;stroke-opacity:1" />
      <path
         d="m 906.84938,508.79772 a 5.1948051,5.1948051 0 0 1 -5.3826,-4.99892 5.1948051,5.1948051 0 0 1 4.99789,-5.38356 5.1948051,5.1948051 0 0 1 5.38452,4.99686 5.1948051,5.1948051 0 0 1 -4.99583,5.38548 l -0.19534,-5.19113 z"
         sodipodi:end="1.5331848"
         sodipodi:start="1.533952"
         sodipodi:ry="5.1948051"
         sodipodi:rx="5.1948051"
         sodipodi:cy="503.60645"
         sodipodi:cx="906.65802"
         sodipodi:type="arc"
         id="path4194-0-1"
         style="fill:none;fill-opacity:1;stroke:#ffffff;stroke-width:7.49999952;stroke-linecap:round;stroke-linejoin:round;stroke-miterlimit:4;stroke-dasharray:none;stroke-opacity:1" />
      <path
         d="m 1147.3289,508.79772 a 5.1948051,5.1948051 0 0 1 -5.3826,-4.99892 5.1948051,5.1948051 0 0 1 4.9979,-5.38356 5.1948051,5.1948051 0 0 1 5.3845,4.99686 5.1948051,5.1948051 0 0 1 -4.9958,5.38548 l -0.1953,-5.19113 z"
         sodipodi:end="1.5331848"
         sodipodi:start="1.533952"
         sodipodi:ry="5.1948051"
         sodipodi:rx="5.1948051"
         sodipodi:cy="503.60645"
         sodipodi:cx="1147.1376"
         sodipodi:type="arc"
         id="path4194-24"
         style="fill:none;fill-opacity:1;stroke:#ffffff;stroke-width:7.49999952;stroke-linecap:round;stroke-linejoin:round;stroke-miterlimit:4;stroke-dasharray:none;stroke-opacity:1" />
      <path
         transform="matrix(-0.99975714,-0.02203767,0.02203767,-0.99975714,0,0)"
         d="m -1363.4603,-468.4784 a 5.1948051,5.1948051 0 0 1 -5.3826,-4.99893 5.1948051,5.1948051 0 0 1 4.9979,-5.38355 5.1948051,5.1948051 0 0 1 5.3846,4.99686 5.1948051,5.1948051 0 0 1 -4.9959,5.38547 l -0.1953,-5.19113 z"
         sodipodi:end="1.5331848"
         sodipodi:start="1.533952"
         sodipodi:ry="5.1948051"
         sodipodi:rx="5.1948051"
         sodipodi:cy="-473.66968"
         sodipodi:cx="-1363.6516"
         sodipodi:type="arc"
         id="path4194-24-2"
         style="fill:none;fill-opacity:1;stroke:#ffffff;stroke-width:7.49999952;stroke-linecap:round;stroke-linejoin:round;stroke-miterlimit:4;stroke-dasharray:none;stroke-opacity:1" />
      <path
         sodipodi:open="true"
         d="m 201.60829,505.79509 a 80.852806,79.002533 0 0 1 71.40611,38.99572 80.852806,79.002533 0 0 1 0.0298,79.92997 80.852806,79.002533 0 0 1 -71.37699,39.04658"
         sodipodi:end="1.590805"
         sodipodi:start="4.6916511"
         sodipodi:ry="79.002533"
         sodipodi:rx="80.852806"
         sodipodi:cy="584.78064"
         sodipodi:cx="203.28488"
         sodipodi:type="arc"
         id="path4140"
         style="fill:none;fill-opacity:1;stroke:#ffffff;stroke-width:7.49999952;stroke-linecap:butt;stroke-linejoin:miter;stroke-miterlimit:4;stroke-dasharray:none;stroke-opacity:1" />
      <path
         sodipodi:open="true"
         d="m 201.61349,347.06973 a 81.423294,78.915947 0 0 1 71.94244,38.95968 81.423294,78.915947 0 0 1 0.003,79.87313 81.423294,78.915947 0 0 1 -71.93988,38.96411"
         sodipodi:end="1.5918157"
         sodipodi:start="4.6913061"
         sodipodi:ry="78.915947"
         sodipodi:rx="81.423294"
         sodipodi:cy="425.96814"
         sodipodi:cx="203.33"
         sodipodi:type="arc"
         id="path4140-5"
         style="fill:none;fill-opacity:1;stroke:#ffffff;stroke-width:7.49999952;stroke-linecap:butt;stroke-linejoin:round;stroke-miterlimit:4;stroke-dasharray:none;stroke-opacity:1" />
      <path
         sodipodi:open="true"
         d="m 328.76725,664.45277 a 59.09198,315.78491 0 0 1 29.50543,-274.08408 59.09198,315.78491 0 0 1 59.17003,-0.009 59.09198,315.78491 0 0 1 29.50819,274.07558"
         sodipodi:end="0.002261273"
         sodipodi:start="3.1392775"
         sodipodi:ry="315.78491"
         sodipodi:rx="59.09198"
         sodipodi:cy="663.72168"
         sodipodi:cx="387.85907"
         sodipodi:type="arc"
         id="path4140-5-7"
         style="fill:none;fill-opacity:1;stroke:#ffffff;stroke-width:7.49999952;stroke-linecap:butt;stroke-linejoin:round;stroke-miterlimit:4;stroke-dasharray:none;stroke-opacity:1" />
      <path
         sodipodi:nodetypes="cc"
         inkscape:connector-curvature="0"
         id="path4316"
         d="m 1014.5416,503.987 87.906,159.89925"
         style="fill:none;fill-opacity:1;fill-rule:evenodd;stroke:#ffffff;stroke-width:7.49999952;stroke-linecap:butt;stroke-linejoin:miter;stroke-miterlimit:4;stroke-dasharray:none;stroke-opacity:1" />
      <path
         sodipodi:open="true"
         d="m 778.74326,503.67304 a 60.088547,158.24869 0 0 1 -36.67459,147.4211 60.088547,158.24869 0 0 1 -65.71207,-33.35399 60.088547,158.24869 0 0 1 -13.24314,-172.75823 60.088547,158.24869 0 0 1 55.652,-97.88065"
         sodipodi:end="4.714176"
         sodipodi:start="6.27259"
         sodipodi:ry="158.24869"
         sodipodi:rx="60.088547"
         sodipodi:cy="505.3497"
         sodipodi:cx="718.65808"
         sodipodi:type="arc"
         id="path4140-5-7-0"
         style="fill:none;fill-opacity:1;stroke:#ffffff;stroke-width:7.49999952;stroke-linecap:butt;stroke-linejoin:round;stroke-miterlimit:4;stroke-dasharray:none;stroke-opacity:1" />
      <path
         sodipodi:open="true"
         inkscape:transform-center-y="-1.62707"
         inkscape:transform-center-x="104.26311"
         d="m 1012.5912,347.07532 a 87.789413,91.222229 0 0 1 82.6856,55.33632 87.789413,91.222229 0 0 1 -18.6253,100.34741"
         sodipodi:end="0.78509593"
         sodipodi:start="4.6900026"
         sodipodi:ry="91.222229"
         sodipodi:rx="87.789413"
         sodipodi:cy="438.27469"
         sodipodi:cx="1014.5563"
         sodipodi:type="arc"
         id="path4140-5-72"
         style="fill:none;fill-opacity:1;stroke:#ffffff;stroke-width:7.49999952;stroke-linecap:butt;stroke-linejoin:round;stroke-miterlimit:4;stroke-dasharray:none;stroke-opacity:1" />
      <path
         sodipodi:open="true"
         d="m 847.10971,664.57072 a 59.510384,315.90421 0 0 1 29.71434,-274.18761 59.510384,315.90421 0 0 1 59.58899,-0.009 59.510384,315.90421 0 0 1 29.71713,274.17912"
         sodipodi:end="0.002261273"
         sodipodi:start="3.1392775"
         sodipodi:ry="315.90421"
         sodipodi:rx="59.510384"
         sodipodi:cy="663.83936"
         sodipodi:cx="906.61993"
         sodipodi:type="arc"
         id="path4140-5-7-1"
         style="fill:none;fill-opacity:1;stroke:#ffffff;stroke-width:7.49999952;stroke-linecap:butt;stroke-linejoin:round;stroke-miterlimit:4;stroke-dasharray:none;stroke-opacity:1" />
      <path
         sodipodi:open="true"
         d="m 1147.1037,346.96119 a 82.604767,158.1573 0 0 1 73.0576,78.11134 82.604767,158.1573 0 0 1 -0.059,160.2099 82.604767,158.1573 0 0 1 -73.1153,77.91302"
         sodipodi:end="1.5940334"
         sodipodi:start="4.6905692"
         sodipodi:ry="158.1573"
         sodipodi:rx="82.604767"
         sodipodi:cy="505.08084"
         sodipodi:cx="1148.906"
         sodipodi:type="arc"
         id="path4140-5-2"
         style="fill:none;fill-opacity:1;stroke:#ffffff;stroke-width:7.49999952;stroke-linecap:butt;stroke-linejoin:round;stroke-miterlimit:4;stroke-dasharray:none;stroke-opacity:1" />
      <path
         sodipodi:open="true"
         transform="matrix(-0.99975607,-0.02208632,0.02198913,-0.99975821,0,0)"
         d="m -1366.9833,-632.90945 a 81.989822,158.38628 0 0 1 75.9744,70.68505 81.989822,158.38628 0 0 1 3.515,162.75888 81.989822,158.38628 0 0 1 -72.6626,82.66401"
         sodipodi:end="1.5787058"
         sodipodi:start="4.6210897"
         sodipodi:ry="158.38628"
         sodipodi:rx="81.989822"
         sodipodi:cy="-475.18283"
         sodipodi:cx="-1359.5081"
         sodipodi:type="arc"
         id="path4140-5-2-3"
         style="fill:none;fill-opacity:1;stroke:#ffffff;stroke-width:7.49999952;stroke-linecap:butt;stroke-linejoin:round;stroke-miterlimit:4;stroke-dasharray:none;stroke-opacity:1" />
      <path
         sodipodi:open="true"
         d="m 1400.4364,664.14103 a 58.217186,316.53711 0 0 1 29.0686,-274.73694 58.217186,316.53711 0 0 1 58.2941,-0.009 58.217186,316.53711 0 0 1 29.0714,274.72843"
         sodipodi:end="0.002261273"
         sodipodi:start="3.1392775"
         sodipodi:ry="316.53711"
         sodipodi:rx="58.217186"
         sodipodi:cy="663.4082"
         sodipodi:cx="1458.6534"
         sodipodi:type="arc"
         id="path4140-5-7-6"
         style="fill:none;fill-opacity:1;stroke:#ffffff;stroke-width:7.49999952;stroke-linecap:butt;stroke-linejoin:round;stroke-miterlimit:4;stroke-dasharray:none;stroke-opacity:1" />
      <path
         sodipodi:open="true"
         d="m 600.16961,503.61145 a 59.09198,158.02269 0 0 1 -36.0867,147.06779 59.09198,158.02269 0 0 1 -64.58908,-33.2931 59.09198,158.02269 0 0 1 -13.05948,-172.40069 59.09198,158.02269 0 0 1 54.65205,-97.8875"
         sodipodi:end="4.7124919"
         sodipodi:start="6.2736347"
         sodipodi:ry="158.02269"
         sodipodi:rx="59.09198"
         sodipodi:cy="505.12064"
         sodipodi:cx="541.08032"
         sodipodi:type="arc"
         id="path4140-5-7-0-0"
         style="fill:none;fill-opacity:1;stroke:#ffffff;stroke-width:7.49999952;stroke-linecap:butt;stroke-linejoin:round;stroke-miterlimit:4;stroke-dasharray:none;stroke-opacity:1" />
      <path
         d="m 541.27168,508.79779 a 5.1948051,5.1948051 0 0 1 -5.3826,-4.99893 5.1948051,5.1948051 0 0 1 4.9979,-5.38356 5.1948051,5.1948051 0 0 1 5.38451,4.99686 5.1948051,5.1948051 0 0 1 -4.99583,5.38548 l -0.19534,-5.19113 z"
         sodipodi:end="1.5331848"
         sodipodi:start="1.533952"
         sodipodi:ry="5.1948051"
         sodipodi:rx="5.1948051"
         sodipodi:cy="503.60651"
         sodipodi:cx="541.08032"
         sodipodi:type="arc"
         id="path4194-0-8-2"
         style="fill:none;fill-opacity:1;stroke:#ffffff;stroke-width:7.49999952;stroke-linecap:round;stroke-linejoin:round;stroke-miterlimit:4;stroke-dasharray:none;stroke-opacity:1" />
      <path
         d="m 388.05043,508.79772 a 5.1948047,5.1948047 0 0 1 -5.3826,-4.99892 5.1948047,5.1948047 0 0 1 4.99789,-5.38356 5.1948047,5.1948047 0 0 1 5.38452,4.99686 5.1948047,5.1948047 0 0 1 -4.99583,5.38548 l -0.19534,-5.19113 z"
         sodipodi:end="1.5331848"
         sodipodi:start="1.533952"
         sodipodi:ry="5.1948047"
         sodipodi:rx="5.1948047"
         sodipodi:cy="503.60645"
         sodipodi:cx="387.85907"
         sodipodi:type="arc"
         id="path4194-0-8-2-3"
         style="fill:none;fill-opacity:1;stroke:#ffffff;stroke-width:7.49999952;stroke-linecap:round;stroke-linejoin:round;stroke-miterlimit:4;stroke-dasharray:none;stroke-opacity:1" />
    </g>
  </g>
</svg>
