<?xml version="1.0" standalone="no"?>
<!DOCTYPE svg PUBLIC "-//W3C//DTD SVG 20010904//EN"
 "http://www.w3.org/TR/2001/REC-SVG-20010904/DTD/svg10.dtd">
<svg version="1.0" xmlns="http://www.w3.org/2000/svg"
 width="349.000000pt" height="349.000000pt" viewBox="0 0 349.000000 349.000000"
 preserveAspectRatio="xMidYMid meet">
<metadata>
Created by potrace 1.11, written by Peter Selinger 2001-2013
</metadata>
<g transform="translate(0.000000,349.000000) scale(0.100000,-0.100000)"
fill="#000000" stroke="none">
<path d="M545 3362 c-3 -3 -5 -20 -5 -39 0 -31 2 -33 33 -33 120 -1 281 -46
387 -107 98 -57 235 -200 287 -298 150 -287 100 -635 -123 -859 -141 -141
-356 -236 -534 -236 l-50 0 0 -43 c0 -38 3 -43 23 -43 146 -2 313 -53 434
-134 92 -62 196 -180 247 -282 63 -126 84 -215 81 -348 -5 -241 -104 -434
-300 -586 -112 -87 -302 -154 -436 -154 l-49 0 0 -36 0 -37 98 5 c113 6 246
46 346 104 536 315 564 1048 53 1397 -59 40 -199 106 -227 107 -8 0 18 14 58
29 330 131 540 429 540 768 0 117 -17 207 -61 312 -101 247 -331 437 -599 495
-75 17 -194 27 -203 18z"/>
<path d="M2313 3351 c-113 -39 -211 -145 -302 -328 -62 -124 -130 -334 -162
-496 -18 -95 -38 -211 -44 -267 -4 -30 -8 -68 -10 -85 -24 -187 -24 -709 -1
-855 3 -14 10 -65 16 -115 37 -302 134 -620 244 -809 56 -96 152 -196 221
-231 152 -76 314 -9 444 184 55 81 119 219 159 341 27 83 55 180 54 187 -1 2
3 17 9 35 10 38 48 242 54 296 3 20 7 64 10 97 4 33 8 71 10 85 3 14 8 104 11
201 l7 176 -39 -1 -38 -1 -2 -90 c-2 -103 -13 -290 -19 -326 -2 -13 -6 -49 -9
-79 -49 -439 -198 -845 -362 -990 -231 -202 -484 54 -623 631 -30 125 -33 144
-52 276 -5 39 -12 81 -14 92 -27 142 -27 731 1 936 2 17 6 53 9 80 10 88 63
337 94 435 71 231 161 399 260 488 44 39 108 72 142 72 21 0 25 4 23 23 -1 12
-3 30 -3 40 -1 21 -22 21 -88 -2z"/>
<path d="M487 2620 c-34 -27 -43 -70 -23 -109 19 -36 21 -37 68 -46 33 -6 41
-3 68 23 80 80 -24 202 -113 132z"/>
<path d="M2344 1827 c-56 -48 -24 -138 53 -152 26 -4 38 0 62 22 43 40 45 85
6 127 -32 34 -83 35 -121 3z"/>
<path d="M498 1025 c-33 -18 -53 -72 -39 -108 23 -59 99 -76 145 -31 70 71
-17 186 -106 139z"/>
</g>
</svg>
